<?xml version="1.0" standalone="no"?>
<!DOCTYPE svg PUBLIC "-//W3C//DTD SVG 20010904//EN"
 "http://www.w3.org/TR/2001/REC-SVG-20010904/DTD/svg10.dtd">
<svg version="1.0" xmlns="http://www.w3.org/2000/svg"
 width="250.000000pt" height="250.000000pt" viewBox="0 0 1200.000000 1200.000000"
 preserveAspectRatio="xMidYMid meet">
<metadata>
Created by potrace 1.16, written by Peter Selinger 2001-2019
</metadata>
<g transform="translate(0.000000,1200.000000) scale(0.100000,-0.100000)"
fill="#000000" stroke="none">
<path d="M2510 11674 c-441 -37 -712 -87 -1007 -188 -389 -134 -684 -314 -929
-568 -318 -329 -498 -739 -560 -1274 -22 -191 -14 -634 15 -849 108 -793 399
-1647 907 -2665 459 -918 1033 -1761 1743 -2560 245 -275 819 -860 845 -860 3
0 6 410 6 911 0 666 -3 916 -11 932 -7 12 -62 92 -124 177 -1146 1586 -1755
2845 -1815 3752 -9 134 1 339 20 438 112 563 517 896 1200 986 140 18 430 23
618 11 l122 -8 0 865 c0 818 -1 866 -17 866 -10 0 -83 7 -163 16 -136 14 -743
27 -850 18z"/>
<path d="M3690 6905 l1 -4730 884 -890 884 -890 1 2280 0 2280 2078 1200 2078
1200 323 1204 c177 662 320 1206 317 1208 -3 3 -47 -18 -98 -48 -51 -29 -1128
-651 -2393 -1381 l-2300 -1328 -3 1427 -2 1428 -885 885 -885 885 0 -4730z"/>
<path d="M4022 11551 c2 -5 366 -386 811 -846 l807 -837 0 -287 0 -286 197
-95 c407 -196 854 -452 1375 -787 98 -63 184 -113 192 -111 18 4 1475 852
1475 858 0 8 -290 228 -489 370 -624 446 -1215 802 -1900 1144 -861 430 -1625
711 -2338 860 -139 30 -135 29 -130 17z"/>
<path d="M9871 7783 c-57 -214 -110 -414 -118 -445 l-16 -57 -339 -188 c-186
-103 -338 -190 -338 -194 0 -4 32 -45 72 -90 154 -179 322 -420 437 -627 115
-208 210 -459 253 -672 31 -154 33 -458 4 -589 -81 -372 -282 -673 -588 -879
-226 -153 -445 -215 -748 -215 -224 0 -422 35 -646 114 -496 175 -1049 577
-1545 1125 -67 74 -126 134 -133 134 -6 -1 -137 -79 -291 -174 l-280 -172 -3
-951 -2 -950 240 -245 c335 -343 597 -576 905 -806 1001 -748 2029 -1063 2975
-911 1176 188 2078 1098 2239 2259 85 607 50 1233 -104 1835 -256 1006 -841
2002 -1738 2958 -66 70 -123 127 -127 127 -4 0 -53 -174 -109 -387z"/>
<path d="M5612 1555 l3 -450 165 -99 c342 -206 727 -412 1045 -559 156 -72
334 -141 343 -133 3 3 -76 90 -174 193 -364 381 -821 874 -1153 1243 -107 118
-202 224 -212 235 -19 19 -19 11 -17 -430z"/>
</g>
</svg>
